<?xml version="1.0" encoding="UTF-8"?><svg id="a" xmlns="http://www.w3.org/2000/svg" viewBox="0 0 84.91 98.05"><path d="M44.68,56.35c6.25,0,11.31-5.09,11.31-11.37,0-.05,0-.1,0-.15-1.08,3.82-4.58,6.62-8.75,6.62-5.02,0-9.1-4.07-9.1-9.09,0-4.17,2.81-7.68,6.64-8.75-.03,0-.07,0-.1,0-6.25,0-11.31,5.09-11.31,11.37s5.07,11.37,11.31,11.37Z" style="fill:#fff;"/><path d="M42.46,0L0,24.51v49.03l42.46,24.51,42.46-24.51V24.51L42.46,0Zm0,5.17l37.98,21.93v26.08h-.11s-11.26-13.88-5.23-20.36c0,0-12.16-1.14-12.16-5,0-3.3,7.28-5.12,7.28-5.12,0,0-35.13-17.39-61.05,14.78,0,0,24.33-18.99,41.5-11.03,0,0-6.71,1.7-9.43,3.18,0,0,16.26-3.64,33.42,22.97,0,0-3.41-1.14-5.69-.91,0,0,5,1.25,11.37,13.3,0,0-6.14-6.37-14.78-10.8,0,0-18.19,12.85-32.06,5.46-13.87-7.39-6.82-16.71-4.55-16.83,0,0-14.78-.11-24.44,6.14h0V27.1L42.46,5.17Zm12.48,69.45c6.33-1.71,14.88-.7,14.88-.7-7.14-4.62-20.2-8.04-20.2-8.04,16.69,1.11,24.62,6.23,24.62,6.23-1.51-3.92-9.05-11.56-9.05-11.56,6.44,2.95,11.97,10.1,13.11,11.64l-10.46,6.04c-3.96-1.77-12.9-3.6-12.9-3.6Zm-50.46-3.67v-19.38h0s16.94-5.57,18.19,3.52c0,0-9.1,3.98-11.37,6.71,0,0,17.74-1.59,36.72,12.05,0,0-8.07,1.02-12.05,2.27,0,0,10.12,2.62,18.65,9.66h.08l-12.25,7.08L4.48,70.95Z" style="fill:#fff;"/></svg>