<?xml version="1.0" encoding="UTF-8"?><svg id="a" xmlns="http://www.w3.org/2000/svg" viewBox="0 0 42.06 48.7"><path d="M42.06,20.84c0-2.82-.55-5.54-1.64-8.11-1.05-2.48-2.55-4.71-4.46-6.62s-4.14-3.42-6.62-4.46c-2.57-1.09-5.3-1.64-8.11-1.64h-.38c-2.82,0-5.54,.55-8.11,1.64-2.48,1.05-4.71,2.55-6.62,4.46S2.69,10.25,1.64,12.73c-1.09,2.57-1.64,5.3-1.64,8.11v.38c0,4.43,1.41,8.72,4,12.27-.72,.89-1.14,2.01-1.14,3.22v.07c0,2.81,2.29,5.09,5.09,5.09h2.08l.93,5.36c.15,.85,.89,1.47,1.74,1.47H29.34c.86,0,1.6-.62,1.74-1.47l.93-5.36h2.09c2.81,0,5.09-2.29,5.09-5.09v-.07c0-1.2-.41-2.32-1.14-3.22,2.59-3.55,4-7.85,4-12.27v-.38Zm-3.54,.38c0,4.18-1.51,8.21-4.25,11.36-.36,.41-.51,.97-.4,1.51,.11,.54,.45,1,.94,1.24,.53,.27,.85,.8,.85,1.38v.07c0,.85-.7,1.55-1.55,1.55h-3.58c-.86,0-1.6,.62-1.74,1.47l-.93,5.36H14.21l-.93-5.36c-.15-.85-.89-1.47-1.74-1.47h-3.58c-.85,0-1.55-.7-1.55-1.55v-.07c0-.59,.33-1.12,.85-1.38,.49-.25,.84-.7,.94-1.24,.11-.54-.04-1.09-.4-1.51-2.74-3.14-4.25-7.18-4.25-11.36v-.38c0-4.62,1.8-8.96,5.07-12.23,3.27-3.27,7.61-5.07,12.23-5.07h.38c4.62,0,8.96,1.8,12.23,5.07,3.27,3.27,5.07,7.61,5.07,12.23v.38h0Z" style="fill:#fff;"/><path d="M21.23,30.06c-.07,.01-.13,.06-.19,.08-.07-.03-.12-.07-.19-.08h0c-.68-.13-1.34,.31-1.48,.99l-.7,3.6c-.13,.68,.31,1.34,.99,1.48,.08,.02,.16,.02,.24,.02,.5,0,.93-.31,1.13-.76,.2,.46,.63,.77,1.13,.77,.08,0,.16,0,.24-.02,.68-.13,1.13-.79,.99-1.48l-.69-3.6c-.13-.68-.79-1.13-1.48-.99Z" style="fill:#fff;"/><path d="M18.73,22.76h0c-3.53-.16-6.88-.67-9.92-1.49-.48,.81-.76,1.75-.76,2.76,0,2.99,2.42,5.41,5.41,5.41s5.41-2.42,5.41-5.41c0-.43-.04-.86-.14-1.27Z" style="fill:#fff;"/><path d="M23.32,22.76c-.1,.41-.15,.84-.15,1.28,0,2.99,2.42,5.41,5.41,5.41s5.41-2.42,5.41-5.41c0-1.01-.28-1.95-.76-2.76-3.04,.81-6.39,1.33-9.92,1.48Z" style="fill:#fff;"/></svg>