<?xml version="1.0" encoding="UTF-8"?><svg id="Layer_1" xmlns="http://www.w3.org/2000/svg" viewBox="0 0 494.12 560"><path d="M452.94,166.53V510.59c0,27.29-22.12,49.41-49.41,49.41H90.59c-27.29,0-49.41-22.12-49.41-49.41V166.53C15.87,150.06,0,121.74,0,90.59,0,40.56,40.56,0,90.59,0H403.53c50.03,0,90.59,40.56,90.59,90.59,0,31.15-15.87,59.46-41.18,75.94Zm-32.94-9.53c0-6.25,3.54-11.96,9.14-14.75,19.47-9.68,32.03-29.54,32.03-51.66,0-31.84-25.81-57.65-57.65-57.65H90.59c-31.84,0-57.65,25.81-57.65,57.65,0,22.12,12.57,41.99,32.04,51.66,5.6,2.78,9.14,8.5,9.14,14.75V510.59c0,9.09,7.38,16.47,16.47,16.47H403.53c9.1,0,16.47-7.38,16.47-16.47V157Zm-65.88,234.18c0,25.02-20.28,45.29-45.29,45.29-19.31,0-35.8-12.08-42.31-29.1l-7.81,7.8c-6.43,6.43-16.86,6.43-23.29,0l-115.3-115.29c-6.43-6.43-6.43-16.86,0-23.29l115.3-115.3c6.43-6.43,16.86-6.43,23.29,0l115.3,115.3c6.43,6.43,6.43,16.86,0,23.29l-19.88,19.88v71.41Zm-85.77-32.23c10.38-10.38,28.12-3.03,28.12,11.65v20.59c0,6.82,5.53,12.36,12.36,12.36s12.35-5.53,12.35-12.36v-78.23c0-4.37,1.73-8.56,4.82-11.65l13.06-13.06-92-92-92,92,92,92,21.29-21.3Z" style="fill:#7f7f7f;"/></svg>