<?xml version="1.0" encoding="UTF-8"?><svg id="Layer_1" xmlns="http://www.w3.org/2000/svg" viewBox="0 0 492.79 369.61"><path d="M424.2,.01c-.77,.09-1.54,.27-2.28,.52L177.1,84.01H22.4c-.35-.02-.7-.02-1.05,0-2.59,.28-5,1.45-6.82,3.32l-11.2,11.2c-2.11,2.08-3.3,4.91-3.32,7.88v123.2c.02,2.96,1.22,5.79,3.32,7.88l11.2,11.2c2.08,2.11,4.91,3.3,7.88,3.32H61.6v106.4c0,6.18,5.02,11.2,11.2,11.2h100.8c4.68,.05,8.89-2.82,10.57-7.19,1.68-4.37,.46-9.32-3.05-12.41l-46.73-41.47v-56.52h42.7l244.82,83.47c3.44,1.2,7.25,.64,10.21-1.48,2.96-2.12,4.7-5.55,4.67-9.2v-117.6h42.52c7.24,0,13.48-6.23,13.48-13.47v-51.45c0-7.24-6.23-13.47-13.47-13.47h-42.52V11.21h0c0-3.03-1.23-5.93-3.4-8.04-2.18-2.11-5.12-3.25-8.14-3.15-.35-.02-.7-.02-1.05,0h0Zm-9.8,26.95V309.05l-214.73-73.15c1.26-1.86,1.93-4.05,1.93-6.3V106.4c0-2.25-.66-4.44-1.93-6.3L414.39,26.95h0ZM70.16,106.41h104.48l4.55,4.55v114.1l-4.55,4.55H70.16c18.36-14.29,30.62-36.39,30.62-61.6s-12.27-47.32-30.62-61.6h0Zm-47.77,5.6c28.75,0,56,25.14,56,56s-27.25,56-56,56V112h0Zm414.4,39.21h33.6v33.6h-33.6v-33.6ZM83.99,252.01h28v61.6h0c-.03,3.19,1.3,6.25,3.67,8.4l28.35,25.2h-60.02v-95.2h0Z" style="fill:#7f7f7f;"/></svg>