<?xml version="1.0" encoding="UTF-8"?><svg id="Layer_1" xmlns="http://www.w3.org/2000/svg" viewBox="0 0 525.02 524.75"><path d="M61.26,244.75h17.5v26.25h-17.5v-26.25Z" style="fill:#7f7f7f;"/><path d="M35.01,271h26.25v17.5h-26.25v-17.5Z" style="fill:#7f7f7f;"/><path d="M61.26,288.5h17.5v26.25h-17.5v-26.25Z" style="fill:#7f7f7f;"/><path d="M78.76,271h26.25v17.5h-26.25v-17.5Z" style="fill:#7f7f7f;"/><path d="M218.76,104.75h17.5v26.25h-17.5v-26.25Z" style="fill:#7f7f7f;"/><path d="M192.51,131h26.25v17.5h-26.25v-17.5Z" style="fill:#7f7f7f;"/><path d="M218.76,148.5h17.5v26.25h-17.5v-26.25Z" style="fill:#7f7f7f;"/><path d="M236.26,131h26.25v17.5h-26.25v-17.5Z" style="fill:#7f7f7f;"/><path d="M516.26,279.75h-234.2L517.24,44.57c4.98-4.89,7.78-11.57,7.78-18.55s-2.8-13.66-7.78-18.55c-4.98-4.79-11.61-7.47-18.52-7.47s-13.55,2.68-18.52,7.47L96.62,391.08c-.67,.71-1.22,1.53-1.62,2.42H26.25c-6.96,0-13.64,2.77-18.56,7.69s-7.69,11.6-7.69,18.56v26.25c.02,20.88,8.33,40.89,23.09,55.66,14.77,14.76,34.78,23.07,55.66,23.09H472.5c4.68,0,8.54-3.68,8.75-8.36l4.52-99.45c25.1-24.61,39.24-58.29,39.23-93.45v-35c0-2.32-.92-4.55-2.56-6.19s-3.87-2.56-6.19-2.56h.01Zm-8.75,35h-227.5v-17.5h227.5v17.5Zm-38.9,94.2c-20.67,18.24-47.29,28.3-74.86,28.3s-54.19-10.07-74.86-28.3l-3.48-76.7h156.68l-3.49,76.7Zm-170.72-76.7l2.55,56.04c-11.6-16.54-18.54-35.9-20.11-56.04h17.55Zm-35.39-8.75c-.01,35.16,14.13,68.84,39.23,93.45l2.91,63.88-23.62-7.64h0c-7.84-2.2-14.75-6.9-19.67-13.39-4.92-6.49-7.59-14.41-7.6-22.55v-17.5c0-6.96-2.77-13.64-7.69-18.56s-11.6-7.69-18.56-7.69h-59.2l94.2-94.2v24.2ZM492.63,19.88c3.41-3.4,8.93-3.4,12.35,0,1.66,1.6,2.6,3.81,2.6,6.12s-.94,4.52-2.6,6.12l-68.06,68.06-12.3-12.3L492.63,19.88Zm-80.5,80.4l12.35,12.35L143.56,393.51h-24.6L412.13,100.28ZM17.51,419.75c0-4.83,3.92-8.75,8.75-8.75H227.51c2.32,0,4.55,.92,6.19,2.56s2.56,3.87,2.56,6.19v8.75H17.51v-8.75Zm297.5,87.5H78.76c-16.24-.02-31.8-6.48-43.29-17.96-11.48-11.48-17.94-27.05-17.96-43.29H236.97c1.66,10.27,6.22,19.86,13.14,27.64,6.92,7.78,15.91,13.43,25.92,16.28l53.5,17.33h-14.53Zm149.14,0h-77.76l-63.95-20.68-2.48-54.62c21.75,14.86,47.47,22.8,73.8,22.8s52.06-7.95,73.8-22.8l-3.42,75.3Zm22.93-118.96l2.55-56.04h17.55c-1.57,20.14-8.51,39.5-20.11,56.04h0Z" style="fill:#7f7f7f;"/></svg>