<?xml version="1.0" encoding="UTF-8"?><svg id="a" xmlns="http://www.w3.org/2000/svg" viewBox="0 0 43.74 45.84"><path d="M21.87,3.27c1.94,.23,11.23,1.36,18.47,2.91-.24,3.86-.74,10.97-1.52,15.52-1.08,6.33-1.85,7.9-5.53,11.18-3.05,2.73-8.54,6.82-11.43,8.94-2.89-2.12-8.38-6.21-11.43-8.94-3.67-3.28-4.45-4.85-5.53-11.18-.77-4.55-1.28-11.67-1.52-15.53,7.19-1.53,16.31-2.65,18.47-2.91m0-3.27h0S8.47,1.52,0,3.62c0,0,.56,11.88,1.71,18.62,1.15,6.74,2.13,9.1,6.56,13.06,4.43,3.96,13.6,10.53,13.6,10.53,0,0,9.16-6.57,13.6-10.53,4.43-3.96,5.42-6.32,6.56-13.06,1.15-6.74,1.71-18.62,1.71-18.62C35.27,1.52,21.87,0,21.87,0h0Z" style="fill:#fff;"/></svg>