<?xml version="1.0" encoding="UTF-8"?><svg id="Layer_1" xmlns="http://www.w3.org/2000/svg" viewBox="0 0 350 560"><path d="M337.93,156.63h-61.78c-6.91,0-12.51,5.6-12.51,12.51v39.9h-38.68s0-39.9,0-39.9c0-3.33-1.33-6.53-3.7-8.88-2.36-2.35-5.57-3.66-8.9-3.63h-24.85v-54.6c14-6.56,20.56-2.54,30.71,3.59,13.39,8.14,31.68,19.34,63.35-.44h0c3.66-2.27,5.88-6.28,5.86-10.59V21.62c0-4.5-2.41-8.65-6.32-10.88-3.91-2.22-8.71-2.18-12.58,.12-18.46,10.94-25.38,6.74-36.84,0-12.95-8.4-31.68-19.6-63.35,.17-3.66,2.28-5.88,6.28-5.86,10.59V156.63h-24.85c-6.93,0-12.55,5.59-12.6,12.51v39.9h-38.68s0-39.9,0-39.9c0-6.91-5.6-12.51-12.51-12.51H12.07C5.34,156.86,0,162.4,0,169.14v113.75c-.02,3.34,1.29,6.54,3.63,8.91,2.35,2.36,5.55,3.7,8.88,3.7H47.51v252c0,6.91,5.6,12.51,12.51,12.51h229.95c3.32,0,6.5-1.32,8.85-3.66,2.34-2.35,3.66-5.53,3.66-8.85v-251.82h35c3.33,0,6.53-1.33,8.88-3.7,2.35-2.36,3.66-5.57,3.63-8.9v-113.75c.1-6.81-5.27-12.45-12.07-12.69h0ZM187.52,28.97c14.35-7.26,20.91-3.15,31.15,3.06h0c12.48,9.45,28.59,12.68,43.75,8.75v46.73c-14.35,7.18-20.91,3.15-31.15-2.98h0c-8.95-6.46-19.59-10.17-30.62-10.67-4.44,.01-8.85,.63-13.12,1.84V28.97Zm27.56,505.93h-80.15v-67.02c0-14.32,7.64-27.55,20.04-34.71,12.4-7.16,27.68-7.16,40.08,0,12.4,7.16,20.04,20.39,20.04,34.71v67.02Zm62.39,0h-37.36v-67.02c0-23.26-12.41-44.75-32.55-56.38-20.14-11.63-44.96-11.63-65.1,0-20.14,11.63-32.55,33.12-32.55,56.38v67.02h-37.36v-239.22h204.92v239.22Zm47.95-264.34H24.6v-88.9H61.26v39.9c.05,6.92,5.68,12.51,12.6,12.51h63.79c3.32,0,6.5-1.32,8.85-3.66,2.35-2.35,3.66-5.53,3.66-8.85v-39.9h49.7v39.9h0c0,6.91,5.6,12.52,12.51,12.52h63.79c6.93,0,12.55-5.59,12.6-12.51v-39.9h36.66v88.9Z" style="fill:#7f7f7f;"/></svg>