<?xml version="1.0" encoding="UTF-8"?><svg id="a" xmlns="http://www.w3.org/2000/svg" viewBox="0 0 84.91 98.05"><g><path d="M42.61,36.08s5.55-9.83,12.53-9.46c0,0-6.1-12.12-12.25-14.27,0,0-.19-.06-.28-.06s-.23,.05-.23,.05c-6.14,2.16-12.31,14.29-12.31,14.29,6.97-.37,12.54,9.46,12.54,9.46Z" style="fill:#fff;"/><path d="M42.61,48.2c5.51,0,10.51-6.44,13.48-9.13,6.02-5.44,8.76-5.81,11.87-7.39,3.62-1.83,5.89-5.81,5.89-5.81-10.29,6.64-23.9,3.82-23.9,3.82,0,0,11.04,3.59-1.16,12.41-4.48,3.24-5.91,2.86-6.18,2.86s-2,.37-6.48-2.86c-12.2-8.81-1.16-12.41-1.16-12.41,0,0-13.61,2.82-23.9-3.82,0,0,2.27,3.98,5.89,5.81,3.11,1.58,5.85,1.95,11.87,7.39,2.97,2.68,8.27,9.13,13.78,9.13Z" style="fill:#fff;"/><path d="M31.73,45.53s-1-3.55-4.48-5.1c-3.48-1.56-3.8-2.18-5.29-4.36-1.49-2.18-4.61-2.68-6.66-2.36,0,0,4.05,2.05,4.23,4.67,.19,2.61-.26,7.57,4.42,8.84,3.67,1,7.78-1.68,7.78-1.68Z" style="fill:#fff;"/><path d="M53.06,45.53s1-3.55,4.48-5.1c3.49-1.56,3.8-2.18,5.29-4.36,1.49-2.18,4.61-2.68,6.66-2.36,0,0-4.05,2.05-4.23,4.67-.19,2.61,.26,7.57-4.42,8.84-3.67,1-7.78-1.68-7.78-1.68Z" style="fill:#fff;"/><path d="M52.14,52.56c4.86,.62,4.54-2.3,4.36-2.99-.1-.37-1.43-3.3-5.42-1.93-.66,.23-1.3,.64-2.37,1.49-.96,.77-1.29,1.31-6.11,1.31s-5.5-.54-6.46-1.31c-1.07-.86-1.7-1.27-2.37-1.49-3.98-1.37-5.32,1.56-5.42,1.93-.19,.68-.5,3.61,4.36,2.99,0,0-20.42,5.23-20.29,14.07,0,0-.12,5.85,5.97,6.97,6.1,1.12,8.71-2.24,14.07-6.85,5.35-4.61,9.63-4.36,10.13-4.36s4.43-.25,9.79,4.36c5.35,4.61,7.97,7.97,14.07,6.85,6.1-1.12,5.98-6.97,5.98-6.97,.12-8.84-20.29-14.07-20.29-14.07Zm-1.16-3.32c1.43-.34,2.72-.06,2.88,.61,.16,.67-.87,1.49-2.3,1.83-1.43,.34-2.72,.07-2.88-.61-.16-.67,.88-1.49,2.31-1.83Zm-19.98,.61c.16-.67,1.44-.94,2.88-.61,1.43,.34,2.46,1.16,2.31,1.83-.16,.67-1.45,.94-2.88,.61-1.43-.34-2.46-1.16-2.3-1.83Zm33.71,15.37c-1.83,2.57-5.15,.25-5.15,.25,0,0-3.82-2.24-7.05-4.48-3.24-2.24-7.63-2.9-7.63-2.9,0,0-1.62-.18-2.28-.18s-2.84,.18-2.84,.18c0,0-4.4,.66-7.64,2.9-3.24,2.24-7.05,4.48-7.05,4.48,0,0-3.32,2.32-5.15-.25-2.08-2.93,2.66-5.15,2.66-5.15,11.95-5.48,19.55-4.81,20.02-4.81s7.5-.66,19.46,4.81c0,0,4.73,2.21,2.66,5.15Z" style="fill:#fff;"/></g><path d="M42.46,0L0,24.51v49.03l42.46,24.51,42.46-24.51V24.51L42.46,0Zm37.98,70.95l-37.98,21.93L4.48,70.95V27.1L42.46,5.17l37.98,21.93v43.86Z" style="fill:#fff;"/></svg>