<?xml version="1.0" encoding="UTF-8"?><svg id="a" xmlns="http://www.w3.org/2000/svg" viewBox="0 0 84.91 98.05"><g><path d="M42.58,55.92c-9.99,0-13.44-3.27-13.44-3.27-1.85-24.77,13.42-26.66,13.42-26.66h.02s14.15,1.46,13.42,26.67c0,0-3.43,3.27-13.42,3.27h0Z" style="fill:#fff;"/><path d="M56.94,44.66l-.16-.89s-.16-.38,.37-.47c.54-.09,2.86-.73,2.86-.73,0,0,.37-.06,.45,.47,.09,.68,.16,1.1,.16,1.1,0,0,.14,.45-.4,.63-.56,.2-2.6,.8-2.6,.8,0,0-.42,.09-.54-.35-.12-.45-.14-.56-.14-.56Z" style="fill:#fff;"/><path d="M57.24,48.57l-.05-.5s-.13-.38,.45-.48l2.72-.76s.43-.2,.43,.28l.02,.78s.15,.43-.3,.58l-2.72,.99s-.4,.28-.5-.38l-.05-.5Z" style="fill:#fff;"/><path d="M57.33,52.05s-.2-.48,.23-.62l3.07-1.05s.34-.06,.34,.17c0,0,.14,.37-.22,.51l-2.91,1.47s-.31,.23-.45-.2c-.14-.42-.06-.28-.06-.28Z" style="fill:#fff;"/><path d="M56.16,40.47l-.09-.52s-.14-.47,.35-.54l2.7-.66s.47-.19,.59,.33c0,0,.16,.7,.16,.89,0,0,.16,.42-.33,.56l-2.67,.82s-.54,.12-.63-.45l-.07-.44Z" style="fill:#fff;"/><path d="M55.39,37.28s-.14-.42,.33-.49l2.72-.7s.42-.14,.49,.3c0,0,.21,.3-.3,.42,0,0-2.39,.73-2.67,.77,0,0-.47,.26-.56-.3Z" style="fill:#fff;"/><path d="M27.96,44.66l.16-.89s.16-.38-.37-.47c-.54-.09-2.86-.73-2.86-.73,0,0-.37-.06-.45,.47-.09,.68-.16,1.1-.16,1.1,0,0-.14,.45,.4,.63,.56,.2,2.6,.8,2.6,.8,0,0,.42,.09,.54-.35,.12-.45,.14-.56,.14-.56Z" style="fill:#fff;"/><path d="M27.66,48.57l.05-.5s.13-.38-.45-.48l-2.72-.76s-.43-.2-.43,.28l-.03,.78s-.15,.43,.3,.58l2.72,.99s.4,.28,.5-.38l.05-.5Z" style="fill:#fff;"/><path d="M27.57,52.05s.2-.48-.23-.62l-3.07-1.05s-.34-.06-.34,.17c0,0-.14,.37,.23,.51l2.91,1.47s.31,.23,.45-.2c.14-.42,.06-.28,.06-.28Z" style="fill:#fff;"/><path d="M28.74,40.47l.09-.52s.14-.47-.35-.54l-2.7-.66s-.47-.19-.59,.33c0,0-.16,.7-.16,.89,0,0-.16,.42,.33,.56l2.67,.82s.54,.12,.63-.45l.07-.44Z" style="fill:#fff;"/><path d="M29.51,37.28s.14-.42-.33-.49l-2.72-.7s-.42-.14-.49,.3c0,0-.21,.3,.3,.42,0,0,2.39,.73,2.67,.77,0,0,.47,.26,.56-.3Z" style="fill:#fff;"/><path d="M24.54,36.85c.09,.04,.24,.22,.16,.41-.47,1.16-2.13,5.76-2.19,12.53,0,0,.07,.56-.47,.18,0,0-11.04-5.66-7.85-16.18,2.22-7.31,8.56-9.27,12.45-10.46,.94-.29,2.78-1.03,3.69-1.41,.92-.39,6.81-3.65,4.19-5.89,0,0-1.08-1.16-3.94-1.45,0,0,8.93-.03,8.84,4.65,0,0,.37,2.78-5.48,6.56-1.95,1.26-15.1,8.37-9.41,11.07Z" style="fill:#fff;"/><path d="M60.37,36.85c-.09,.04-.24,.22-.16,.41,.47,1.16,2.13,5.76,2.19,12.53,0,0-.07,.56,.47,.18,0,0,11.04-5.66,7.85-16.18-2.22-7.31-8.56-9.27-12.45-10.46-.95-.29-2.78-1.03-3.69-1.41-.92-.39-6.81-3.65-4.19-5.89,0,0,1.08-1.16,3.94-1.45,0,0-8.93-.03-8.84,4.65,0,0-.37,2.78,5.48,6.56,1.95,1.26,15.1,8.37,9.41,11.07Z" style="fill:#fff;"/><path d="M42.46,57.74c-4.89,.1-8.84-1.69-8.84-1.69,0,0-.91-.29-1.14-.46,0,0-.75-.39-.33,.62,0,0,1.41,3.42,4.05,2.77,0,0,3.26-.82,4.66-.2,0,0,1.15,.18,1.78,.18,.64,0,1.61-.18,1.61-.18,1.4-.62,4.66,.19,4.66,.19,2.64,.65,4.04-2.78,4.04-2.78,.42-1.01-.33-.62-.33-.62-.23,.16-1.14,.46-1.14,.46,0,0-3.94,1.8-8.83,1.7h-.2Z" style="fill:#fff;"/><path d="M44.78,63.23s1.56,1.74,3.24,1.74,3.98-1.19,4.79-3.36c.93-2.49,2.3-3.98,2.3-3.98,0,0,.81-.93,2.49-.69,0,0,2.61,.31,3.17-.62,0,0,.6-.44,.25-1.93-.11-.48,0-2.12,1.43-1.37,.9,.47,1.31,2.3,.25,4.11,0,0-1.56,2.18-4.11,1.62-2.55-.56-3.73,1.99-3.73,1.99,0,0-1.12,3.8,.81,4.05,1.93,.25,3.17,.81,4.48-2.3,0,0,1.37-3.61,3.55-1.99,0,0,1.24,1.43,.5,2.24-.75,.81-1.24-.31-1.24-.31,0,0-.75-1.12-1.43,.5-.69,1.62-1.43,3.61-3.61,3.67-2.18,.06-3.55-.51-3.42,1.68,.12,2.12,1.74,2.74,1.74,2.74,0,0,3.24,1.37,4.67-1.74,0,0,1.18-2.68,1.56-3.24,0,0,1.06-2.05,2.86-1.12,1.81,.93,.68,3.98,.68,3.98,0,0-.68,2.24-1.62,1.8-.93-.44,.06-2.18,.06-2.18,0,0,1-1.43,.06-1.87-.93-.44-1.37,1.56-1.37,1.56,0,0-.72,5.97-5.35,7.03-1.62,.37-4.17-1.93-4.17-1.93,0,0-1.31-1-1.56-.06-.25,.93,.5,3.11,.5,3.11,0,0,.8,3.11-1.45,4.07-2.25,.96-2.05,2.03-1.72,3.98,0,0,.33,1.24-.93,.88,0,0-1.82-.78-1.69-3.15,0,0-.19-1.31,.81-2.18,0,0,2.18-2.05,.25-4.11-1.93-2.05-4.67,.44-4.23,1.87,.44,1.43,2.3,6.6,1.74,8.09,0,0-.37,1.87-1.24,2.99-.87,1.12-1.56,.75-1.74,.56-.19-.19-.93-.97-.37-1.59,.5-.56,3.21-3.7-2.36-5.57,0,0-.53,.54-2.74-.93,0,0-1.68-1.06-1.68-1.68,0,0-.08-.45-.37-.45,0,0-.37-.12-.37,.37s.17,3.03-1.2,3.53c0,0-1.92,1.02-2.7-.54-.5-1,1.04-1.04,1.04-1.04,0,0,2.18,.68,1-3.49,0,0-3.49-1.8-2.86-3.98,0,0-1.91,1.47-5.73-1.74-3.55-2.99-3.67-1.12-3.67-1.12,0,0,0,.62,.62,1.12,.62,.5,.12,1.18-.06,1.43-.19,.25-1.49,.25-2.05-.56-.56-.81-1.06-4.42,2.49-4.54,1.37-.05,2.74,1.43,2.74,1.43,0,0,3.24,2.61,4.67,1.8,1.43-.81,1-1.99,1-1.99,0,0-.12-1.31-2.37-1.31,0,0-2.55-.81-3.61-2.86-1.06-2.05-3.05-3.92-3.24-4.11-.19-.19-2.86-2.24-2.3,.93,0,0,0,1.18-.87,1.25s-1.18-1.37-1.18-1.37c0,0-.62-3.17,1.74-3.49,2.37-.31,5.1,2.8,5.1,2.8,0,0,2.93,4.48,5.04,3.61,2.12-.87,2.8-3.24,.75-5.29-1.78-1.78-2.68,1-2.68,1,0,0,.12,1.06-.81,1.06s-.93-1.18-.81-1.49c.12-.31,1.37-3.98,4.54-2.43,0,0,1.62,.93,2.99,3.67s2.72,3.06,4.36,2.8c1.56-.25,2.37-.56,3.17-1.49,0,0,1.37,1.56,2.8,1.56s2.43-1.43,2.43-1.43Z" style="fill:#fff;"/></g><path d="M42.46,0L0,24.51v49.03l42.46,24.51,42.46-24.51V24.51L42.46,0Zm37.98,70.95l-37.98,21.93L4.48,70.95V27.1L42.46,5.17l37.98,21.93v43.86Z" style="fill:#fff;"/></svg>