<?xml version="1.0" encoding="UTF-8"?><svg id="a" xmlns="http://www.w3.org/2000/svg" viewBox="0 0 46.69 43.1"><path d="M33.85,0C29.77,0,25.91,1.88,23.35,4.93,20.78,1.88,16.93,0,12.84,0,5.6,0,0,5.64,0,12.92c0,8.92,7.94,16.09,19.96,27.13l3.39,3.05,3.39-3.05c12.02-11.04,19.96-18.2,19.96-27.13,0-7.28-5.6-12.92-12.84-12.92h0Zm-9.06,36.95l-.47,.43-.97,.87-.97-.87-.47-.43c-5.66-5.19-10.55-9.68-13.78-13.69-3.14-3.9-4.54-7.09-4.54-10.35,0-2.57,.95-4.93,2.66-6.66,1.71-1.72,4.05-2.67,6.59-2.67,2.93,0,5.83,1.37,7.76,3.65l2.75,3.27,2.75-3.27c1.92-2.29,4.82-3.65,7.76-3.65,2.54,0,4.88,.95,6.59,2.67,1.72,1.73,2.66,4.09,2.66,6.66,0,3.26-1.4,6.45-4.54,10.34-3.23,4.01-8.12,8.5-13.78,13.69h0Z" style="fill:#fff;"/></svg>