<?xml version="1.0" encoding="utf-8"?>
<!-- Generator: Adobe Illustrator 27.2.0, SVG Export Plug-In . SVG Version: 6.00 Build 0)  -->
<svg version="1.1" id="a" xmlns="http://www.w3.org/2000/svg" xmlns:xlink="http://www.w3.org/1999/xlink" x="0px" y="0px"
	 viewBox="0 0 84.9 98.1" style="enable-background:new 0 0 84.9 98.1;" xml:space="preserve">
<style type="text/css">
	.st0{fill:#FFFFFF;}
</style>
<path class="st0" d="M42.5,0L0,24.5v49l42.5,24.5l42.5-24.5v-49L42.5,0z M80.4,70.9l-38,21.9l-38-21.9V27.1l38-21.9l38,21.9V70.9
	L80.4,70.9z"/>
<image style="overflow:visible;" width="270" height="270" xlink:href="D03256D0.jpg"  transform="matrix(1 0 0 1 -385.4961 -104.89)">
</image>
<g>
	<polygon class="st0" points="24.2,79 34.7,79 34.7,50.9 39.5,79 45.1,79 50,51 50,79 60.7,79 60.7,19.1 47.7,19.1 42.2,50.9 
		37.4,19.1 24.2,19.1 	"/>
</g>
</svg>
