<?xml version="1.0" encoding="UTF-8"?><svg id="Layer_1" xmlns="http://www.w3.org/2000/svg" viewBox="0 0 481.6 515.23"><path d="M32.73,.02c-9.05,.43-16.79,9.36-15.93,18.38l13.13,140.18C11.01,192.95,0,232.46,0,274.43c0,132.79,108.01,240.8,240.8,240.8s240.8-108.01,240.8-240.8c0-41.97-11-81.47-29.93-115.85l13.12-140.18c.6-6.19-2.56-12.6-7.84-15.89-5.28-3.29-12.42-3.3-17.72-.04l-92.22,56.18c-32.12-15.85-68.06-25.02-106.23-25.02s-74.11,9.17-106.23,25.02L42.34,2.47C39.47,.72,36.07-.15,32.72,.02h0Zm20.82,48.65l71.23,43.4c5.02,3.04,11.66,3.18,16.8,.35,29.47-16.12,63.19-25.2,99.23-25.2s69.75,9.08,99.23,25.2c5.14,2.83,11.78,2.69,16.8-.35l71.23-43.4-10.5,111.48c-.3,3.45,.51,6.99,2.27,9.98,17.89,30.65,28.18,66.22,28.18,104.3,0,114.63-92.57,207.2-207.2,207.2S33.61,389.06,33.61,274.43c0-38.08,10.29-73.65,28.18-104.3,1.76-2.98,2.57-6.52,2.27-9.98l-10.51-111.48Zm30.54,94.27c-1.23,7.61,3.53,15.76,10.76,18.43l89.6,33.6c8.35,3.91,19.56-.63,22.83-9.25,3.27-8.62-2.09-19.46-10.93-22.07l-89.6-33.6c-9.88-3.49-20.77,1.82-22.66,12.89h0Zm290.76-12.89l-89.6,33.6c-8.84,2.62-14.2,13.46-10.93,22.07,3.27,8.62,14.48,13.16,22.83,9.25l89.6-33.6c7.3-2.71,12.05-11.02,10.69-18.68-3.76-12.98-12.62-15.89-22.59-12.64h0Zm-229.25,60.38c-18.56,0-33.6,15.04-33.6,33.6s15.04,33.6,33.6,33.6,33.6-15.04,33.6-33.6-15.04-33.6-33.6-33.6h0Zm190.4,0c-18.56,0-33.6,15.04-33.6,33.6s15.04,33.6,33.6,33.6,33.6-15.04,33.6-33.6-15.04-33.6-33.6-33.6h0ZM102.71,322.68c-2.52,4.94-2.38,11.14,.37,15.96,29.56,51.58,79.89,86.98,137.72,86.98s108.17-35.4,137.73-86.98c2.84-5.07,2.8-11.63-.12-16.66-2.92-5.02-8.59-8.32-14.41-8.37H117.6c-6.21-.08-11.84,2.11-14.89,9.06h0Zm47.79,24.54h180.6c-24.06,27.86-55.68,44.8-90.3,44.8s-66.24-16.95-90.3-44.8h0Z" style="fill:#7f7f7f;"/></svg>