<?xml version="1.0" encoding="UTF-8"?><svg id="a" xmlns="http://www.w3.org/2000/svg" viewBox="0 0 53.96 41.56"><path d="M51.15,31.91c-.05-.03-.11-.04-.17-.02-1.16-6.56-5.58-11.36-10.64-11.36-1.63,0-3.04-.51-4.19-1.51,.41-.48,.54-1.17,.32-1.81-.24-.67-.8-1.08-1.48-1.08-.29,0-.58,.02-.88,.07-.11-.23-.21-.46-.3-.7,.18-.56,.15-1.52-.65-2.05-.58-2.34-.59-4.39-.59-4.41,0-.08-.04-.16-.11-.2-.07-.05-.15-.06-.23-.03-.08,.03-7.88,2.67-15.75-8.71-.05-.07-.12-.11-.21-.11-2.93,0-8.26,3.16-10.91,11.86-.35,.41-2.84,3.5-5.36,11.78-.03,.08,0,.18,.05,.24l8.02,8.8c.08,.08,.2,.11,.3,.05l5.2-2.85,10.54,8.67c.11,.12,2.78,3.01,5.53,3.01h21.38s2.92-.04,2.92-3.18-1.45-5.77-2.81-6.47ZM15.08,3.73c5.71,7.48,11.52,8.76,14.62,8.83,.06,.38,.14,.77,.22,1.16-2.19,.9-3.89,2.72-4.08,2.93-.6,.66-.6,1.74,0,2.41,.3,.33,.7,.51,1.12,.51h0c.42,0,.84-.18,1.13-.51,.46-.5,1.61-1.54,2.83-2.08,.06,.15,.12,.29,.19,.44-1.41,.89-2.41,1.95-2.6,2.16-.6,.66-.61,1.74,0,2.41,.3,.33,.7,.51,1.13,.51h0c.43,0,.83-.18,1.13-.51,.34-.37,1.13-1.11,2.06-1.67,1.9,2.42,4.43,3.65,7.5,3.65,1.56,0,6.66,.49,7.38,6.68H30.38L8.76,12.23c.2-.94,1.57-6.38,6.33-8.49ZM50.78,38.13H29.65c-.93,0-2.5-1.16-3.3-2.02l-12.3-10.16s-.1-.06-.16-.06c-.04,0-.08,.01-.12,.03l-4.93,2.7-5.24-5.75c1.03-3.06,2.5-6.45,3.26-7.93l22.77,19.07s.1,.06,.16,.06h19.59c.85,.02,1.36,1.53,1.4,4.05Z" style="fill:#fff;"/></svg>