<?xml version="1.0" encoding="UTF-8"?><svg id="a" xmlns="http://www.w3.org/2000/svg" viewBox="0 0 53.11 41.58"><path d="M52.85,25.05c-.23-.65-.57-1.19-1.03-1.6-.5-.44-1.1-.7-1.75-.75-5-.38-7.98-1.61-9.68-4.01-1.63-2.3-2.31-5.88-2.29-11.99,0-.58-.09-1.14-.28-1.65-.2-.54-.51-1.01-.91-1.39-.44-.42-.93-.69-1.47-.8-.55-.11-1.11-.06-1.67,.16-7.63,2.98-12.55,4.54-16.72,4.22-3.81-.29-7.2-2.04-12.94-6.7C3.6,.12,3-.06,2.39,.02c-.38,.05-.73,.2-1.06,.44-.26,.19-.49,.43-.68,.72C.18,1.87-.06,2.81,.01,3.68c.17,1.92,.83,3.86,1.96,5.77,.81,1.37,1.9,2.77,3.31,4.27-.05,.09-.09,.18-.13,.28-.32,.77-.4,1.69-.22,2.46,.43,1.85,1.36,3.6,2.76,5.22,.87,1,1.91,1.94,3.16,2.86-.12,.29-.21,.6-.27,.92-.14,.78-.08,1.6,.17,2.28,0,.03,.02,.07,.03,.1,.72,1.71,1.93,3.19,3.6,4.4,1.26,.92,2.77,1.68,4.6,2.34,1,.36,2.1,.58,3.28,.65-.01,.55,.08,1.12,.25,1.62,.21,.61,.53,1.1,.93,1.42,1.32,1.08,3.02,1.64,5.05,1.67,1.47,.02,3.1-.23,4.98-.76,.03,.17,.07,.34,.13,.5,.24,.69,.72,1.23,1.39,1.56,.46,.22,1,.33,1.62,.33,.84,0,1.84-.21,2.97-.62,2.14-.78,4.43-1.75,6.67-3.64,2.33-1.97,4.4-4.76,6.32-8.54,.29-.58,.47-1.2,.52-1.84,.05-.65-.03-1.29-.24-1.89Zm-15.31,12.25c.62-.4,1.26-.87,1.89-1.37,.66-.53,.82-1.51,.36-2.23-.24-.37-.61-.61-1.03-.68-.42-.07-.85,.05-1.19,.32-.85,.68-1.69,1.26-2.5,1.71-.78,.43-1.54,.76-2.27,.97-1.65,.47-3.02,.69-4.22,.67-1.3-.02-2.36-.33-3.15-.93,0,0,0-.02-.01-.04-.05-.15-.08-.33-.07-.49,0-.04,0-.07,0-.1,2.07-.27,4.3-.9,6.63-1.87,.78-.32,1.18-1.23,.92-2.06-.14-.43-.44-.77-.83-.95-.38-.18-.8-.18-1.2-.02-2.22,.92-4.29,1.5-6.18,1.7-1.79,.2-3.37,.05-4.71-.42-1.56-.56-2.82-1.19-3.85-1.94-1.2-.87-2.05-1.9-2.54-3.07h0c-.01-.06-.02-.15-.01-.28,1.77,.79,3.83,1.23,6.14,1.31,3.07,.11,6.58-.43,10.12-1.56,.81-.26,1.28-1.13,1.08-1.98-.1-.44-.38-.81-.75-1.02-.36-.21-.78-.25-1.18-.12-3.23,1.03-6.38,1.51-9.12,1.42-2.19-.08-4.08-.53-5.66-1.36-.27-.15-.53-.3-.79-.47-1.44-.97-2.57-1.94-3.46-2.96-.95-1.09-1.6-2.24-1.95-3.43,2.17,1.4,4.79,2.34,7.83,2.8,4.41,.66,9.36,.22,13.59-1.21,.8-.27,1.26-1.15,1.05-2-.11-.44-.39-.8-.77-1.01-.35-.19-.75-.23-1.12-.12-.02,0-.04,.01-.06,.02-3.8,1.29-8.25,1.68-12.2,1.09-3.63-.54-6.82-2.03-8.75-4.07-1.29-1.37-2.27-2.62-2.99-3.83-.77-1.3-1.25-2.54-1.44-3.77,4.8,3.8,8.81,6.22,13.62,6.58,4.74,.35,9.99-1.28,18.03-4.41,.05,.05,.1,.12,.13,.21,.04,.11,.07,.27,.06,.44-.02,6.86,.84,11.03,2.9,13.94,2.27,3.21,5.94,4.84,11.9,5.29,.03,.03,.08,.11,.13,.24,.06,.17,.08,.34,.07,.52-.02,.19-.07,.38-.15,.55-1.71,3.38-3.52,5.83-5.51,7.51-1.76,1.48-3.56,2.31-5.73,3.09-1.06,.38-1.66,.46-1.98,.45,.15-.32,.46-.72,.9-1.03Z" style="fill:#fff;"/></svg>