<?xml version="1.0" encoding="UTF-8"?><svg id="Layer_1" xmlns="http://www.w3.org/2000/svg" viewBox="0 0 511.28 459.31"><path d="M199.64,0c27.59,.02,54.87,5.73,80.15,16.78,25.27,11.06,48,27.21,66.74,47.45,4.16,4.55,3.86,11.61-.67,15.79l-137.2,127.57c-2.16,2.11-5.07,3.25-8.09,3.18s-5.87-1.36-7.93-3.57L63.45,68.89c-2.06-2.19-3.15-5.11-3.04-8.11,.12-3,1.43-5.83,3.66-7.85l.67-.5c18.1-16.68,39.16-29.83,62.1-38.75C150.05,4.64,174.74,0,199.64,0h0Zm71.12,37.24c-43.05-18.81-91.81-19.77-135.58-2.69-17.06,6.68-33,15.93-47.26,27.44l113.51,121.46,120.73-112c-15.03-14.27-32.43-25.83-51.41-34.16v-.05Zm32.99,304.36c5.02-3.63,12.04-2.5,15.68,2.52,3.63,5.03,2.5,12.05-2.52,15.68-29.41,21.47-64.18,34.42-100.46,37.41-2.97,.26-5.93-.67-8.21-2.6-2.28-1.92-3.7-4.68-3.94-7.65V231.67c.05-3.39,1.56-6.59,4.14-8.79l8.01-7.17,134.96-125.44c2.18-2.02,5.08-3.1,8.05-2.98,2.97,.12,5.78,1.41,7.8,3.6,.54,.45,.97,1,1.29,1.62,9.34,14.76,16.57,30.74,21.5,47.49,5.24,16.61,8.25,33.84,8.96,51.24,.22,6.18-4.62,11.38-10.81,11.59-6.18,.22-11.38-4.62-11.59-10.8-1.04-26.39-8.05-52.2-20.5-75.49l-124.54,115.64-4.65,4.31v136.92c11.72-1.78,23.22-4.76,34.33-8.91,15.11-5.48,29.39-13.02,42.45-22.4l.05-.51Zm-123.93,55.27c-49.2-4.76-94.87-27.66-128.11-64.25C18.47,296.05,.04,248.4,0,198.97c-.04-43.15,14.02-85.14,40.04-119.56,1.79-2.43,4.47-4.03,7.45-4.45,2.98-.42,6.01,.38,8.39,2.21l1.46,1.46,127.29,135.97,5.6,5.94c1.85,2.11,2.88,4.81,2.91,7.61v157.7c0,2.97-1.18,5.82-3.28,7.92-2.1,2.1-4.95,3.28-7.92,3.28-.7-.02-1.4-.14-2.07-.34l-.05,.16Zm-111.11-79.18c26.74,29.39,62.6,48.91,101.81,55.38V232.62l-2.35-2.69L50.29,103.99c-7.75,12.27-13.97,25.43-18.54,39.2-6.11,18.04-9.19,36.96-9.13,56-.11,43.96,16.35,86.34,46.09,118.72v-.22Z" style="fill:#7f8080;"/><path d="M348.6,334.15c7.4-2.27,15.25,1.86,17.58,9.24,1.17,3.56,.84,7.45-.92,10.76-1.75,3.32-4.78,5.78-8.38,6.82-14.75,4.6-30.47,5.09-45.47,1.4-18.34-4.55-34.63-15.09-46.29-29.95-11.66-14.86-18.02-33.2-18.06-52.09-.04-27.95,13.7-54.12,36.73-69.95s52.39-19.29,78.47-9.23c26.08,10.05,45.52,32.32,51.96,59.51,6.45,27.2-.93,55.82-19.72,76.51-5.24,5.79-14.18,6.22-19.96,.98-5.78-5.24-6.22-14.18-.98-19.96,9.79-10.67,15.07-24.72,14.73-39.2-.31-14.09-5.89-27.56-15.63-37.75-9.74-10.2-22.95-16.37-37.02-17.32-14.07-.95-27.98,3.41-39,12.2-11.02,8.8-18.35,21.4-20.55,35.32-2.2,13.93,.89,28.17,8.67,39.93,7.78,11.76,19.68,20.18,33.35,23.61,10.06,2.41,20.57,2.08,30.46-.95v.11Z" style="fill:#7f8080;"/><path d="M388.3,353.92l17.3-17.19c3.13-3.03,7.32-4.72,11.68-4.72s8.54,1.7,11.68,4.72l77.5,77.22c3.05,3.11,4.78,7.29,4.82,11.65-.04,4.36-1.76,8.54-4.82,11.65l-17.3,17.25c-3.12,3.07-7.32,4.8-11.7,4.82-4.37,.02-8.57-1.71-11.65-4.82l-77.5-77.22c-3.03-3.13-4.72-7.32-4.72-11.68s1.69-8.54,4.72-11.68h0Zm28.95,3.08l-8.62,8.57,68.82,68.66,8.68-8.62-68.88-68.6Z" style="fill:#7f8080;"/><path d="M412.94,345.3c4.42,4.42,4.42,11.59,0,16.02-4.42,4.42-11.59,4.42-16.02,0l-25.31-25.31c-4.41-4.42-4.39-11.58,.03-15.99,4.42-4.41,11.58-4.39,15.99,.03l25.31,25.25Z" style="fill:#7f8080;"/><path d="M205.24,235.48c-.22,23.15-.43,46.27-.62,69.38,0,9.63,16.8,9.63,16.8,0,.41-23.11,.61-46.23,.61-69.38,.28-9.63-16.46-9.63-16.8,0h0Z" style="fill:#7f8080;"/><path d="M171.64,246.68c-.22,23.15-.43,46.27-.62,69.38,0,9.63,16.8,9.63,16.8,0,.41-23.11,.62-46.23,.62-69.38,.28-9.63-16.46-9.63-16.8,0Z" style="fill:#7f8080;"/></svg>