<?xml version="1.0" encoding="UTF-8"?><svg id="a" xmlns="http://www.w3.org/2000/svg" viewBox="0 0 48.64 48.65"><path d="M47.43,35.46L13.19,1.22c-.77-.77-1.85-1.22-2.95-1.22s-2.17,.44-2.95,1.22L1.22,7.3c-.77,.77-1.22,1.85-1.22,2.95s.44,2.17,1.22,2.95L35.46,47.43c.78,.78,1.83,1.22,2.94,1.22s2.17-.44,2.95-1.22l6.08-6.08c.77-.77,1.22-1.85,1.22-2.95s-.44-2.17-1.22-2.95ZM11.51,10.36c-.35,.35-.54,.82-.52,1.3,.01,.46,.2,.87,.52,1.16,.35,.35,.82,.54,1.3,.52,.46-.01,.87-.2,1.16-.52l3.01-3.01,3.26,3.26-3.01,3.01c-.35,.35-.54,.82-.52,1.3,.01,.46,.2,.87,.52,1.16,.34,.35,.81,.52,1.3,.52,.46-.01,.87-.2,1.16-.52l3.01-3.01,3.26,3.26-3.01,3.01c-.35,.35-.54,.82-.52,1.3,.01,.46,.2,.87,.52,1.16,.35,.35,.83,.54,1.3,.52,.46-.01,.87-.2,1.16-.52l3.01-3.01,3.2,3.2-3.01,3.01c-.35,.35-.54,.82-.52,1.3,.01,.46,.2,.87,.52,1.16,.35,.35,.83,.53,1.3,.52,.46-.01,.87-.2,1.16-.52l3.01-3.01,3.2,3.2-3.01,3.01c-.35,.35-.54,.82-.52,1.3,.01,.46,.2,.87,.52,1.16,.35,.35,.84,.53,1.3,.52,.46-.01,.87-.2,1.16-.52l3.01-3.01,5.18,5.18c.13,.13,.21,.32,.2,.51,0,.16-.07,.3-.2,.41l-6.08,6.31c-.11,.11-.27,.17-.48,.17-.06,0-.27-.01-.43-.17L3.68,10.73c-.11-.11-.17-.27-.17-.49,0-.15,.07-.33,.17-.49L9.81,3.62c.11-.11,.27-.17,.49-.17,.15,0,.33,.07,.48,.17l3.73,3.73-3.01,3.01Zm26.24,34.78h0Z" style="fill:#fff;"/></svg>