<?xml version="1.0" encoding="UTF-8"?><svg id="Layer_1" xmlns="http://www.w3.org/2000/svg" viewBox="0 0 550.58 320.31"><path d="M366.91,69.44c-2.24-2.24-5.6-7.84-7.84-12.32C345.63,35.84,324.35,0,278.43,0c-4.48,0-8.96,2.24-11.2,5.6-2.24,3.36-3.36,7.84-2.24,12.32,0,0,7.84,28,6.72,59.36-13.44,3.36-28,6.72-41.44,11.2-40.32,11.2-78.4,21.28-112,22.4C54.43,31.36,17.47,33.6,10.75,35.84c-4.48,1.12-8.96,4.48-10.08,8.96-1.12,4.48-1.12,10.08,2.24,13.44,43.68,50.4,50.4,96.32,51.52,104.16-2.24,14.56-16.8,57.12-25.76,82.88-2.24,5.6,0,11.2,4.48,15.68,4.48,3.36,11.2,4.48,15.68,1.12,40.32-23.52,61.6-51.52,70.56-64.96,45.92,1.12,76.16,11.2,107.52,22.4,25.76,8.96,51.52,16.8,85.12,20.16,8.96,31.36,8.96,67.2,8.96,67.2,0,4.48,2.24,8.96,6.72,11.2,2.24,1.12,4.48,2.24,7.84,2.24,2.24,0,4.48,0,6.72-1.12s44.8-22.4,59.36-82.88c67.2-6.72,95.2-31.36,105.28-41.44,17.92-4.48,43.68-17.92,43.68-43.68-1.12-34.71-72.8-81.75-183.68-81.75h0Zm127.68,97.44c-3.36,1.12-6.72,3.36-8.96,5.6,0,0-21.28,29.12-98.56,34.72-6.72,0-12.32,5.6-12.32,12.32-4.48,28-16.8,45.92-28,57.12-1.12-15.68-4.48-36.96-11.2-57.12v-1.12c-2.24-7.84-5.6-15.68-8.96-22.4s-12.32-8.96-19.04-5.6c-5.6,3.36-8.96,10.08-6.72,16.8-23.52-3.36-43.68-10.08-64.96-17.92-34.72-11.2-69.44-23.52-124.32-23.52-5.6,0-10.08,3.36-12.32,7.84,0,0-8.96,16.8-30.24,35.84,5.6-17.92,11.2-38.08,12.32-48.16v-2.24c0-2.24-2.24-34.72-25.76-76.16,12.32,10.08,26.88,25.76,43.68,48.16,2.24,3.36,6.72,5.6,11.2,5.6,39.2,0,82.88-12.32,125.44-23.52,16.8-4.48,34.72-8.96,51.52-13.44,5.6-1.12,10.08-6.72,11.2-12.32,1.12-21.28-1.12-42.56-3.36-58.24,19.04,6.72,30.24,25.76,39.2,40.32,8.96,13.44,15.68,25.76,29.12,25.76,100.8,0,154.56,40.32,156.8,52.64,1.12,10.07-16.8,16.8-25.76,19.04h0Z" style="fill:#7f7f7f;"/><path d="M417.31,124.32c-7.84,1.12-12.32,7.84-11.2,15.68,1.12,6.72,2.24,20.16,1.12,35.84-1.12,7.84,4.48,14.56,12.32,15.68h1.12c6.72,0,13.44-5.6,13.44-12.32,1.12-16.8,0-32.48-1.12-42.56-1.12-8.96-7.84-13.44-15.68-12.32h0Z" style="fill:#7f7f7f;"/><path d="M372.51,124.32c-7.84,1.12-12.32,7.84-11.2,15.68,1.12,6.72,2.24,20.16,1.12,35.84-1.12,7.84,4.48,14.56,12.32,15.68h1.12c6.72,0,13.44-5.6,13.44-12.32,1.12-16.8,0-32.48-1.12-42.56-1.12-8.96-7.84-13.44-15.68-12.32h0Z" style="fill:#7f7f7f;"/></svg>