<?xml version="1.0" encoding="UTF-8"?><svg id="a" xmlns="http://www.w3.org/2000/svg" viewBox="0 0 84.91 98.05"><g><path d="M25.66,53.1s-1-3.61-2.86-5.48c0,0-3.48,18.8,7.59,33.61,0,0-8.09-17.05-4.73-28.13Z" style="fill:#fff;"/><path d="M35.25,64.43s-4.36-1.99-6.47-5.1c0,0-.75,11.08,6.97,18.92,0,0-3.86-7.1-.5-13.82Z" style="fill:#fff;"/><path d="M59.25,53.1s1-3.61,2.86-5.48c0,0,3.49,18.8-7.59,33.61,0,0,8.09-17.05,4.73-28.13Z" style="fill:#fff;"/><path d="M49.67,64.43s4.36-1.99,6.47-5.1c0,0,.75,11.08-6.97,18.92,0,0,3.86-7.1,.5-13.82Z" style="fill:#fff;"/><path d="M42.44,10.84s-.25,.16-.64,.44h1.29c-.4-.28-.65-.44-.65-.44Z" style="fill:#fff;"/><path d="M56.71,25.38c-3.56-6.38-9.85-11.4-12.74-13.49h-3.05c-2.86,2.09-9.11,7.11-12.67,13.49,0,0-4.48,7.47-5.73,18.51,0,0,3.82,4.73,5.64,9.71,0,0,1.24,5.23,9.96,8.38,0,0,.08,.58-.5,2.32,0,0,1.84,1.09,4.82,1.09s4.89-1.09,4.89-1.09c-.58-1.74-.5-2.32-.5-2.32,8.71-3.15,9.96-8.38,9.96-8.38,1.83-4.98,5.64-9.71,5.64-9.71-1.24-11.04-5.73-18.51-5.73-18.51Zm-18.86,30.83s-5.6,.62-6.97-5.04c0,0,3.61,.6,6.1,2.43,0,0,1.19,1.52,.87,2.62Zm6.49-1.18h-3.73v-.62h3.73v.62Zm0-1.35h-3.73v-.62h3.73v.62Zm0-1.35h-3.73v-.62h3.73v.62Zm0-1.35h-3.73v-.62h3.73v.62Zm0-1.35h-3.73v-.62h3.73v.62Zm0-1.35h-3.73v-.62h3.73v.62Zm0-1.35h-3.73v-.62h3.73v.62Zm0-1.35h-3.73v-.62h3.73v.62Zm0-1.35h-3.73v-.62h3.73v.62Zm0-1.35h-3.73v-.62h3.73v.62Zm0-1.35h-3.73v-.62h3.73v.62Zm0-1.35h-3.73v-.62h3.73v.62Zm0-1.35h-3.73v-.62h3.73v.62Zm0-1.35h-3.73v-.62h3.73v.62Zm0-1.35h-3.73v-.62h3.73v.62Zm0-1.35h-3.73v-.62h3.73v.62Zm0-1.35h-3.73v-.62h3.73v.62Zm0-1.35h-3.73v-.62h3.73v.62Zm0-1.35h-3.73v-.62h3.73v.62Zm0-1.35h-3.73v-.62h3.73v.62Zm0-1.35h-3.73v-.62h3.73v.62Zm0-1.35h-3.73v-.62h3.73v.62Zm0-1.35h-3.73v-.62h3.73v.62Zm0-1.35h-3.73v-.62h3.73v.62Zm0-1.35h-3.73v-.62h3.73v.62Zm0-1.35h-3.73v-.62h3.73v.62Zm0-1.35h-3.73v-.62h3.73v.62Zm0-1.35h-3.73v-.62h3.73v.62Zm0-1.35h-3.73v-.62h3.73v.62Zm0-1.35h-3.73v-.62h3.73v.62Zm0-1.35h-3.73v-.62h3.73v.62Zm0-1.35h-3.73v-.62h3.73v.62Zm2.77,42.97c-.32-1.09,.87-2.62,.87-2.62,2.49-1.82,6.1-2.43,6.1-2.43-1.37,5.66-6.97,5.04-6.97,5.04Z" style="fill:#fff;"/></g><path d="M42.46,0L0,24.51v49.03l42.46,24.51,42.46-24.51V24.51L42.46,0Zm37.98,70.95l-37.98,21.93L4.48,70.95V27.1L42.46,5.17l37.98,21.93v43.86Z" style="fill:#fff;"/></svg>