<?xml version="1.0" encoding="UTF-8"?><svg id="a" xmlns="http://www.w3.org/2000/svg" viewBox="0 0 84.91 98.05"><g><path d="M42.77,11.27s26.02,12.7,28.88,27.01c0,0,1,3.61,.87,9.21,0,0,1,1.99-1,2.61,0,0-5.98,13.82-15.81,2.74,0,0,10.58,6.97,10.71-5.98,0,0-1.87-1.25-.25-3.98,0,0,.75-6.72-6.97-14.94-7.72-8.22-19.67-8.34-20.79-5.23-1.12,3.11-2.61,15.81,9.34,30.25,0,0,2.86,3.53,8.67,8.17,0,0,.91,.58,.66,1.58,0,0,.66,3.65,4.07,3.9,3.4,.25,5.64-2.99,6.06-5.23,0,0-.29,10.75-11.74,8.51,0,0-3.36,0-4.61-3.86,0,0-7.22,1.37-4.85,7.84,0,0,.19,.87,.81,1.06,0,0,1.12,.56,1.56,1.06,0,0,5.35,1.62,8.34-2.55,0,0-3.67,9.59-13.13,4.17,0,0-2.3,.75-2.55-1.62,0,0,0-1.62-2.49-.25,0,0-2.43,1.62-2.93,2.43,0,0-.37,3.05,2.55,3.61,2.93,.56,5.42-.37,7.34-1.18,0,0-3.2,4.85-7.68,4.11-4.48-.75-7.14-4.4-7.14-4.4,0,0-2.3-.08-2.43-2.14-.12-2.05-1-12.64-8.34-15.93,0,0-2.05,5.54,2.12,8.9,0,0-6.22-2.43-6.78-10.46l-1.37-.62s-1.37-.25-1.49-2.49c0,0-5.18-31.03,30.37-46.31Z" style="fill:#fff;"/><path d="M41.57,24.55s5.64-.91,11.87,2.57c0,0-2.74,6.47,.83,11.95,0,0-1.08-7.97,1.74-10.29,0,0,15.19,11.12,4.07,20.5,0,0,2.55-7.08-.25-6.89,0,0-4.73,3.73-8.15,2.24-2.43-1.31-10.33-7.72-10.1-20.08Z" style="fill:#fff;"/></g><path d="M42.46,0L0,24.51v49.03l42.46,24.51,42.46-24.51V24.51L42.46,0Zm37.98,70.95l-37.98,21.93L4.48,70.95V27.1L42.46,5.17l37.98,21.93v43.86Z" style="fill:#fff;"/></svg>