<?xml version="1.0" encoding="UTF-8"?><svg id="a" xmlns="http://www.w3.org/2000/svg" viewBox="0 0 84.91 98.05"><path d="M42.46,0L0,24.51v49.03l42.46,24.51,42.46-24.51V24.51L42.46,0Zm37.98,71l-16.55,9.71c4.66-7.4,5.23-16.66,5.23-16.66,2.5-3.24,1.59-4.39,1.16-5.24-.83-1.66-2.33-3.58-2.33-3.58-6.99-26.46-25.79-21.47-25.79-21.47,16.64,1.83,15.14,21.8,15.14,21.8l-2.5,1.66c-3.33,2-1.16,7.49-1.16,7.49,0,0,2.25,8.5-10.15,14.31-17.39,8.15-39-7.89-39-7.89V27.15l15.52-8.91c-4.24,7.24-4.91,15.72-4.91,15.72-2.5,3.25-1.59,4.39-1.16,5.24,.83,1.67,2.33,3.58,2.33,3.58,6.99,26.46,25.79,21.47,25.79,21.47-16.64-1.83-15.14-21.8-15.14-21.8l2.5-1.66c3.33-2,1.16-7.49,1.16-7.49,0,0-2.4-8.83,10.15-14.31,18.69-8.16,39.72,8.3,39.72,8.3v43.71Z" style="fill:#fff;"/></svg>